<?xml version="1.0" standalone="no"?>
<!DOCTYPE svg PUBLIC "-//W3C//DTD SVG 20010904//EN"
 "http://www.w3.org/TR/2001/REC-SVG-20010904/DTD/svg10.dtd">
<svg version="1.0" xmlns="http://www.w3.org/2000/svg"
 width="512.000000pt" height="512.000000pt" viewBox="0 0 512.000000 512.000000"
 preserveAspectRatio="xMidYMid meet">
<metadata>
Created by potrace 1.14, written by Peter Selinger 2001-2017
</metadata>
<g transform="translate(0.000000,512.000000) scale(0.100000,-0.100000)"
fill="#000000" stroke="none">
<path d="M2316 4618 c-55 -135 -127 -340 -124 -353 2 -14 12 -10 48 19 25 20
48 36 53 36 4 0 7 -360 7 -800 l0 -799 -44 -44 c-61 -62 -89 -140 -84 -232 8
-115 59 -194 160 -244 113 -57 236 -38 332 50 l54 49 565 0 566 0 -6 -37 c-26
-173 -109 -385 -209 -535 -210 -317 -540 -539 -914 -616 l-85 -17 -3 -144 -3
-144 66 7 c151 15 423 105 572 187 99 56 225 144 310 218 260 226 463 570 533
903 10 49 21 92 23 94 2 3 66 28 142 57 75 29 137 57 137 62 0 10 -347 174
-369 175 -19 0 -16 -11 12 -52 14 -20 25 -39 25 -41 0 -2 -78 9 -172 24 -95
15 -281 44 -413 64 -132 20 -361 57 -510 81 l-269 44 -44 44 -44 44 -78 548
c-118 828 -149 1049 -145 1052 2 2 27 -13 56 -33 32 -22 55 -32 57 -25 5 15
-168 390 -180 390 -5 0 -15 -15 -22 -32z m187 -2079 c53 -24 60 -87 17 -131
-27 -26 -36 -30 -68 -25 -45 8 -72 38 -72 81 0 65 62 103 123 75z"/>
<path d="M3030 4370 c-11 -21 -13 -250 -2 -265 4 -6 53 -26 110 -44 434 -141
760 -461 905 -891 l32 -95 139 -3 c77 -1 143 1 148 6 19 19 -62 262 -136 410
-220 438 -651 778 -1124 886 -58 13 -63 13 -72 -4z"/>
<path d="M2025 4110 c-559 -160 -986 -562 -1164 -1095 -33 -99 -68 -262 -73
-340 l-3 -50 133 -5 c74 -3 140 -1 148 3 8 4 14 22 14 40 0 41 32 184 59 267
57 172 194 394 329 533 155 159 386 295 612 361 l75 22 3 147 c3 172 16 160
-133 117z"/>
<path d="M2835 3808 c-3 -7 -4 -222 -3 -478 l3 -465 493 -3 c564 -3 509 -15
468 104 -84 244 -257 480 -462 631 -101 74 -250 151 -371 192 -101 34 -121 37
-128 19z m182 -237 c2 -10 5 -133 6 -272 l2 -254 277 -3 c270 -2 278 -3 289
-23 6 -13 7 -25 2 -30 -5 -5 -141 -8 -314 -7 l-304 3 -3 303 c-2 301 -2 302
19 302 12 0 23 -8 26 -19z"/>
<path d="M717 2143 c-12 -11 -8 -61 14 -166 50 -248 153 -477 312 -689 28 -38
58 -68 67 -68 15 0 200 179 200 194 0 4 -30 48 -66 99 -111 154 -194 346 -230
527 -9 47 -21 91 -26 98 -11 13 -258 18 -271 5z"/>
<path d="M1434 938 c-52 -50 -94 -97 -94 -104 0 -19 200 -148 315 -204 158
-76 396 -145 530 -152 l50 -3 3 142 c3 141 2 143 -20 147 -13 3 -63 12 -111
21 -164 30 -338 100 -484 194 -44 28 -84 51 -88 51 -4 0 -50 -41 -101 -92z"/>
</g>
</svg>
